<svg xmlns="http://www.w3.org/2000/svg" width="653.098" height="390.432" viewBox="0 0 653.098 390.432">
  <g id="undraw_login_re_4vu2" transform="translate(0 0)">
    <path id="Path_5" data-name="Path 5" d="M827,662.674c-8.361-7.065-13.44-18.227-12.108-29.092s9.581-20.854,20.282-23.161,22.9,4.08,26.149,14.533c1.789-20.153,3.85-41.151,14.565-58.313,9.7-15.54,26.506-26.66,44.718-28.649s37.386,5.524,48.744,19.9,14.139,35.271,6.184,51.774c-5.86,12.157-16.656,21.2-27.968,28.565a180.5,180.5,0,0,1-123.453,27.008Z" transform="translate(-326.974 -276.628)" fill="#f2f2f2"/>
    <path id="Path_6" data-name="Path 6" d="M967.619,545.872a297.838,297.838,0,0,0-87.514,118.336c-.835,2.045,2.487,2.936,3.312.913a294.527,294.527,0,0,1,86.63-116.82c1.715-1.4-.728-3.814-2.429-2.429Z" transform="translate(-343.251 -278.568)" fill="#fff"/>
    <path id="Path_7" data-name="Path 7" d="M375.243,644.612c11.484-9.7,18.46-25.034,16.631-39.958s-13.16-28.643-27.858-31.812-31.452,5.6-35.916,19.961c-2.457-27.68-5.288-56.521-20-80.093-13.326-21.344-36.406-36.617-61.42-39.349s-51.35,7.587-66.95,27.33-19.42,48.445-8.494,71.112c8.049,16.7,22.877,29.124,38.414,39.234a247.922,247.922,0,0,0,169.563,37.095" transform="translate(-165 -260.485)" fill="#f2f2f2"/>
    <path id="Path_8" data-name="Path 8" d="M216.193,484.184a405.635,405.635,0,0,1,56.53,56.134A411.433,411.433,0,0,1,317.3,606.3a409.756,409.756,0,0,1,19.09,40.422c1.147,2.81-3.416,4.033-4.549,1.254a402.635,402.635,0,0,0-36.79-69.609,405.174,405.174,0,0,0-49.342-60.954,404.217,404.217,0,0,0-32.855-29.888c-2.355-1.918,1-5.238,3.336-3.336Z" transform="translate(-176.731 -263.15)" fill="#fff"/>
    <path id="Path_9" data-name="Path 9" d="M698.5,579.538h-274V298.405A108.6,108.6,0,0,1,532.974,189.931h57.053A108.6,108.6,0,0,1,698.5,298.405Z" transform="translate(-229.697 -189.931)" fill="#f2f2f2"/>
    <path id="Path_10" data-name="Path 10" d="M641.449,579.539H424.5V298.406a107.635,107.635,0,0,1,20.716-63.767c.5-.679,1-1.35,1.508-2.013a108.449,108.449,0,0,1,23.087-22.408c.5-.36.992-.714,1.5-1.068a108.218,108.218,0,0,1,23.626-12.356c.5-.188,1-.376,1.506-.557a108.114,108.114,0,0,1,23.353-5.507c.494-.067,1-.12,1.508-.173a109.816,109.816,0,0,1,23.35,0c.505.053,1.012.106,1.512.174a108.094,108.094,0,0,1,23.347,5.506c.505.181,1.01.369,1.508.558a107.948,107.948,0,0,1,23.351,12.173c.5.346,1.009.7,1.506,1.055a109.592,109.592,0,0,1,13.8,11.684,108.326,108.326,0,0,1,9.552,10.923c.511.661,1.008,1.331,1.505,2.009a107.635,107.635,0,0,1,20.717,63.768Z" transform="translate(-229.696 -189.932)" fill="#ccc"/>
    <circle id="Ellipse_1" data-name="Ellipse 1" cx="12.011" cy="12.011" r="12.011" transform="translate(382.1 239.845)" fill="#6c63ff"/>
    <path id="Path_11" data-name="Path 11" d="M590.088,495.994h-9.2l-4.379-35.5H590.09Z" transform="translate(-143.73 -114.807)" fill="#ffb8b8"/>
    <path id="Path_12" data-name="Path 12" d="M569.87,504.28H587.62v11.175H558.7A11.175,11.175,0,0,1,569.87,504.28Z" transform="translate(-139.29 -125.723)" fill="#2f2e41"/>
    <path id="Path_13" data-name="Path 13" d="M651.088,495.994h-9.2l-4.379-35.5H651.09Z" transform="translate(-158.938 -114.807)" fill="#ffb8b8"/>
    <path id="Path_14" data-name="Path 14" d="M630.87,504.28H648.62v11.175H619.7A11.175,11.175,0,0,1,630.87,504.28Z" transform="translate(-154.498 -125.723)" fill="#2f2e41"/>
    <path id="Path_15" data-name="Path 15" d="M697.636,496.012a8.064,8.064,0,0,1,3.386-11.893l31.285-86.229,15.394,8.4L711.98,488.7a8.108,8.108,0,0,1-14.345,7.317Z" transform="translate(-297.446 -241.777)" fill="#ffb8b8"/>
    <path id="Path_16" data-name="Path 16" d="M810.4,515.847a8.064,8.064,0,0,1-2.172-12.174l-9.691-91.216,17.519.8,4.028,89.723a8.108,8.108,0,0,1-9.684,12.866Z" transform="translate(-322.948 -245.409)" fill="#ffb8b8"/>
    <circle id="Ellipse_2" data-name="Ellipse 2" cx="18.438" cy="18.438" r="18.438" transform="translate(441.063 103.266)" fill="#ffb8b8"/>
    <path id="Path_17" data-name="Path 17" d="M795.719,488.425H740.133l.067-.433c.1-.647,9.907-64.889,2.674-85.906a8.868,8.868,0,0,1,4.556-10.948h0c10.338-4.868,30.183-10.863,46.933,3.685a21.2,21.2,0,0,1,7.1,17.563Z" transform="translate(-308.388 -238.732)" fill="#6c63ff"/>
    <path id="Path_18" data-name="Path 18" d="M746.043,434.645l-25.025-5.077,11.73-27.8a10.507,10.507,0,1,1,20.348,5.253Z" transform="translate(-303.622 -240.779)" fill="#6c63ff"/>
    <path id="Path_19" data-name="Path 19" d="M796.482,444.718l-1.5-34.488c-1.141-6.483,2.57-12.612,8.278-13.614s11.284,3.5,12.43,10.029l5.655,32.225Z" transform="translate(-322.01 -241.425)" fill="#6c63ff"/>
    <path id="Path_20" data-name="Path 20" d="M792.875,517.049c8.944,34.064,9.92,77.373,7.507,124.614l-12.011-1.5L766.6,550.079,754.59,641.663l-13.512-.751c-4.037-49.568-7.967-92.121-1.5-120.11Z" transform="translate(-307.393 -271.485)" fill="#2f2e41"/>
    <path id="Path_21" data-name="Path 21" d="M781.9,357.357c-3.44,3.664-9.828,1.7-10.276-3.308a6.041,6.041,0,0,1,.008-1.168c.231-2.217,1.512-4.23,1.206-6.571a3.446,3.446,0,0,0-.631-1.613c-2.741-3.67-9.175,1.642-11.762-1.681-1.586-2.037.278-5.245-.939-7.522-1.607-3.005-6.365-1.523-9.349-3.169-3.32-1.831-3.122-6.925-.936-10.024,2.665-3.779,7.339-5.795,11.953-6.086s9.2.957,13.507,2.636c4.9,1.908,9.75,4.544,12.762,8.849,3.663,5.235,4.016,12.272,2.184,18.393C788.515,349.817,784.712,354.365,781.9,357.357Z" transform="translate(-310.254 -221.404)" fill="#2f2e41"/>
    <path id="Path_22" data-name="Path 22" d="M820.617,708.98H266.389a.894.894,0,0,1,0-1.788H820.617a.894.894,0,0,1,0,1.788Z" transform="translate(-190.055 -318.89)" fill="#3f3d56"/>
    <path id="Path_23" data-name="Path 23" d="M599.969,524.889H502.379a4.854,4.854,0,0,1-4.88-4.816V302.247a4.853,4.853,0,0,1,4.879-4.816h97.589a4.854,4.854,0,0,1,4.879,4.816V520.073A4.854,4.854,0,0,1,599.969,524.889Z" transform="translate(-247.896 -216.732)" fill="#fff"/>
    <rect id="Rectangle_5" data-name="Rectangle 5" width="107.348" height="1.501" transform="translate(249.604 151.181)" fill="#ccc"/>
    <rect id="Rectangle_6" data-name="Rectangle 6" width="107.348" height="1.501" transform="translate(249.979 236.842)" fill="#ccc"/>
    <rect id="Rectangle_7" data-name="Rectangle 7" width="1.501" height="228.209" transform="translate(283.385 80.699)" fill="#ccc"/>
    <rect id="Rectangle_8" data-name="Rectangle 8" width="1.501" height="228.209" transform="translate(320.919 80.699)" fill="#ccc"/>
  </g>
</svg>
