<svg id="password" xmlns="http://www.w3.org/2000/svg" width="48.2" height="48.2" viewBox="0 0 48.2 48.2">
  <path id="Path_1" data-name="Path 1" d="M0,0H48.2V48.2H0Z" fill="none"/>
  <path id="Path_2" data-name="Path 2" d="M32.117,15.058H30.108V11.042a10.042,10.042,0,1,0-20.083,0v4.017H8.017A4.028,4.028,0,0,0,4,19.075V39.158a4.028,4.028,0,0,0,4.017,4.017h24.1a4.028,4.028,0,0,0,4.017-4.017V19.075A4.028,4.028,0,0,0,32.117,15.058ZM20.067,33.133a4.017,4.017,0,1,1,4.017-4.017A4.028,4.028,0,0,1,20.067,33.133Zm6.226-18.075H13.841V11.042a6.226,6.226,0,0,1,12.452,0Z" transform="translate(4.033 1.008)" fill="#6665dd"/>
</svg>
